<svg id="Layer_5" enable-background="new 0 0 64 64" height="512" viewBox="0 0 64 64" width="512" xmlns="http://www.w3.org/2000/svg" xmlns:xlink="http://www.w3.org/1999/xlink"><linearGradient id="SVGID_1_" gradientUnits="userSpaceOnUse" x1="32" x2="32" y1="63" y2="1"><stop offset="0" stop-color="#9f2fff"/><stop offset="1" stop-color="#0bb1d3"/></linearGradient><path d="m31 25h-1v14h-1.592c-.404-.683-1.001-1.269-1.766-1.652l-14.497-7.248c1.71-1.058 2.855-2.945 2.855-5.1 0-3.309-2.691-6-6-6s-6 2.691-6 6c0 1.85.842 3.505 2.162 4.607-2.448 1.091-4.162 3.544-4.162 6.393v8c0 1.958.81 3.728 2.111 5h-2.111v14h15c2.206 0 4-1.794 4-4v-11c0-1.13-.391-2.162-1.026-3h12.026c2.757 0 5-2.243 5-5v-10c0-2.757-2.243-5-5-5zm-22-4c2.206 0 4 1.794 4 4s-1.794 4-4 4-4-1.794-4-4 1.794-4 4-4zm-6 30h5 2 2v8c0 .732.212 1.409.556 2h-9.556zm15-3v11c0 1.103-.897 2-2 2s-2-.897-2-2v-8c0-1.103-.897-2-2-2h-2-2c-2.757 0-5-2.243-5-5v-8c0-2.757 2.243-5 5-5h1c.308 0 .616.072.89.209l15.857 7.928c1 .5 1.496 1.677 1.104 2.621-.317.766-1.027 1.242-1.852 1.242-.307 0-.615-.072-.889-.209l-16.005-8.002-.895 1.789 4.79 2.395v6.027h1 2c1.654 0 3 1.346 3 3zm2.055-5h-5.055-1v-3.027zm13.945-3c0 1.654-1.346 3-3 3h-2.541c.088-.153.171-.309.24-.476.205-.495.294-1.012.285-1.524h1.016c1.103 0 2-.897 2-2v-11.829c1.164.413 2 1.525 2 2.829zm14-39c-8.271 0-15 6.729-15 15s6.729 15 15 15 15-6.729 15-15-6.729-15-15-15zm0 27.607c-.644-.675-1.673-1.891-2.637-3.607h5.275c-.965 1.717-1.994 2.932-2.638 3.607zm-3.606-5.607c-.699-1.687-1.228-3.697-1.353-6h9.918c-.124 2.303-.654 4.313-1.353 6zm-9.343-6h5.99c.108 2.268.563 4.272 1.193 6h-5.171c-1.129-1.758-1.844-3.802-2.012-6zm12.949-13.607c.644.675 1.674 1.891 2.637 3.607h-5.275c.964-1.716 1.994-2.932 2.638-3.607zm3.606 5.607c.699 1.687 1.228 3.697 1.353 6h-9.918c.124-2.303.654-4.313 1.353-6zm-10.566 6h-5.99c.169-2.198.883-4.242 2.012-6h5.171c-.63 1.728-1.085 3.732-1.193 6zm13.92 2h5.99c-.169 2.198-.883 4.242-2.012 6h-5.171c.63-1.728 1.085-3.732 1.193-6zm0-2c-.108-2.268-.563-4.272-1.193-6h5.171c1.129 1.758 1.844 3.802 2.012 6zm2.399-8h-4.441c-.767-1.56-1.625-2.811-2.376-3.747 2.652.528 5.011 1.869 6.817 3.747zm-11.901-3.747c-.751.936-1.608 2.187-2.376 3.747h-4.441c1.806-1.878 4.165-3.219 6.817-3.747zm-6.817 21.747h4.441c.767 1.56 1.625 2.811 2.376 3.747-2.652-.528-5.011-1.869-6.817-3.747zm11.901 3.747c.751-.936 1.609-2.187 2.376-3.747h4.441c-1.806 1.878-4.165 3.219-6.817 3.747zm-5.542-15.747v-2h2v2zm6 0h-2v-2h2zm-6 6h2v2h-2zm6 0v2h-2v-2zm-24-11h1l-1.6-1.2 1.2-1.6 5.067 3.8-5.067 3.8-1.2-1.6 1.6-1.2h-1c-1.654 0-3 1.346-3 3v11l1.2-1.6 1.6 1.199-3.8 5.068-3.8-5.067 1.6-1.199 1.2 1.599v-11c0-2.757 2.243-5 5-5zm3.6 44.2 5.066 3.8-5.066 3.8-1.2-1.6 1.6-1.2h-4c-1.654 0-3-1.346-3-3v-3l-1.2 1.6-1.6-1.2 3.8-5.067 3.8 5.067-1.6 1.2-1.2-1.6v3c0 .552.449 1 1 1h4l-1.6-1.2zm30.4-4.2c0-2.757-2.243-5-5-5h-12c-2.757 0-5 2.243-5 5v9h-2v1c0 2.757 2.243 5 5 5h16c2.757 0 5-2.243 5-5v-1h-2zm-20 0c0-1.654 1.346-3 3-3h12c1.654 0 3 1.346 3 3v9h-18zm17 13h-16c-1.304 0-2.416-.836-2.829-2h21.657c-.412 1.164-1.524 2-2.828 2zm-8-14c-1.654 0-3 1.346-3 3s1.346 3 3 3 3-1.346 3-3-1.346-3-3-3zm0 4c-.551 0-1-.448-1-1s.449-1 1-1 1 .448 1 1-.449 1-1 1z" fill="url(#SVGID_1_)"/></svg>