<svg id="Layer_5" enable-background="new 0 0 64 64" height="512" viewBox="0 0 64 64" width="512" xmlns="http://www.w3.org/2000/svg" xmlns:xlink="http://www.w3.org/1999/xlink"><linearGradient id="SVGID_1_" gradientUnits="userSpaceOnUse" x1="32" x2="32" y1="63" y2="1"><stop offset="0" stop-color="#9f2fff"/><stop offset="1" stop-color="#0bb1d3"/></linearGradient><path d="m39 7c-9.925 0-18 8.075-18 18s8.075 18 18 18 18-8.075 18-18-8.075-18-18-18zm15.949 19c-.228 3.658-1.683 6.981-3.967 9.567l-1.375-1.375-1.414 1.414 1.375 1.375c-2.587 2.285-5.91 3.74-9.568 3.968v-1.949h-2v1.949c-3.658-.228-6.981-1.683-9.568-3.968l1.375-1.375-1.414-1.414-1.375 1.375c-2.284-2.587-3.74-5.91-3.967-9.567h1.949v-2h-1.949c.228-3.658 1.683-6.981 3.967-9.567l1.375 1.375 1.414-1.414-1.375-1.375c2.587-2.285 5.91-3.74 9.568-3.968v1.949h2v-1.949c3.658.228 6.981 1.683 9.568 3.968l-1.375 1.375 1.414 1.414 1.375-1.375c2.284 2.587 3.74 5.91 3.967 9.567h-1.949v2zm-14.949-3.816v-7.184h-2v7.184c-1.161.414-2 1.514-2 2.816 0 1.654 1.346 3 3 3 1.302 0 2.402-.839 2.816-2h4.184v-2h-4.184c-.302-.847-.969-1.514-1.816-1.816zm-1 3.816c-.551 0-1-.448-1-1s.449-1 1-1 1 .448 1 1-.449 1-1 1zm18.436-12.993 1.164-2.349-5.259-5.258-2.349 1.164c-2.273-1.482-4.769-2.514-7.435-3.073l-.839-2.491h-7.437l-.84 2.491c-2.666.56-5.162 1.591-7.435 3.073l-2.347-1.164-5.259 5.258 1.164 2.349c-1.481 2.271-2.513 4.767-3.074 7.436l-2.49.839v7.436l1.15.388c-8.506.925-15.15 8.146-15.15 16.894 0 9.374 7.626 17 17 17 8.748 0 15.968-6.643 16.894-15.149l.388 1.149h7.437l.84-2.491c2.666-.56 5.162-1.591 7.435-3.073l2.349 1.164 5.258-5.258-1.164-2.349c1.481-2.271 2.513-4.767 3.074-7.436l2.489-.839v-7.436l-2.491-.84c-.561-2.669-1.592-5.164-3.073-7.435zm-39.436 47.993c-1.716 0-3.547-2.264-4.729-6h9.458c-1.182 3.736-3.013 6-4.729 6zm-5.264-8c-.398-1.778-.653-3.797-.713-6h11.955c-.061 2.203-.316 4.222-.713 6zm-9.685-6h6.972c.056 2.139.286 4.16.668 6h-5.947c-.961-1.812-1.55-3.845-1.693-6zm0-2c.143-2.155.732-4.188 1.693-6h5.948c-.382 1.84-.612 3.861-.668 6zm22.926 2h6.972c-.143 2.155-.732 4.188-1.693 6h-5.948c.383-1.84.613-3.861.669-6zm.001-2c-.009-.347-.02-.691-.039-1.035l1.068-.53c.925.603 1.896 1.112 2.892 1.564h-3.921zm-2.049-1.13c.023.375.039.751.049 1.13h-11.956c.061-2.203.316-4.222.713-6h6.834l-.169.342zm-3.368-6.87h-7.29c1.152-3.641 2.919-5.871 4.597-5.982.599 2.12 1.49 4.125 2.696 5.976zm-6.889-5.357c-1.011 1.36-1.858 3.189-2.484 5.357h-5.16c1.897-2.517 4.557-4.425 7.644-5.357zm-7.644 23.357h5.159c.627 2.168 1.474 3.997 2.484 5.357-3.086-.932-5.746-2.84-7.643-5.357zm16.3 5.357c1.011-1.36 1.858-3.189 2.484-5.357h5.159c-1.896 2.517-4.556 4.425-7.643 5.357zm38.672-33.075-2.237.754-.106.58c-.513 2.803-1.588 5.404-3.197 7.732l-.335.484 1.045 2.11-3.227 3.227-2.109-1.045-.485.334c-2.331 1.61-4.933 2.686-7.732 3.197l-.58.105-.755 2.24h-4.563l-.755-2.238-.58-.105c-2.8-.512-5.401-1.587-7.732-3.197l-.485-.334-2.109 1.045-3.227-3.227 1.045-2.11-.335-.484c-1.608-2.328-2.684-4.93-3.197-7.732l-.106-.58-2.238-.756v-4.564l2.237-.754.106-.58c.513-2.803 1.588-5.404 3.197-7.732l.335-.484-1.045-2.11 3.227-3.227 2.109 1.045.485-.334c2.331-1.61 4.933-2.686 7.732-3.197l.58-.105.755-2.24h4.563l.755 2.238.58.105c2.8.512 5.401 1.587 7.732 3.197l.485.334 2.109-1.045 3.227 3.227-1.045 2.11.335.484c1.608 2.328 2.684 4.93 3.197 7.732l.106.58 2.238.756zm-24.172 32.303.345 1.971c-.674.117-1.371.214-2.07.286l-.205-1.99c.652-.067 1.302-.157 1.93-.267zm-19.026-51.724-1.016-1.723c.579-.342 1.173-.665 1.765-.962l.896 1.787c-.558.282-1.108.582-1.645.898zm-1.523.966-1.124-1.654c-5.619 3.82-9.768 9.45-11.778 15.894-1.356.288-2.377 1.493-2.377 2.933 0 1.654 1.346 3 3 3s3-1.346 3-3c0-1.151-.659-2.141-1.613-2.644 1.911-5.885 5.736-11.024 10.892-14.529zm-12.279 18.173c-.551 0-1-.448-1-1s.449-1 1-1 1 .448 1 1-.449 1-1 1zm50 21c-1.654 0-3 1.346-3 3 0 .456.11.884.293 1.272-3.521 3.354-7.821 5.739-12.534 6.907l.481 1.941c5.063-1.255 9.681-3.821 13.459-7.429.396.192.833.309 1.301.309 1.654 0 3-1.346 3-3s-1.346-3-3-3zm0 4c-.551 0-1-.448-1-1s.449-1 1-1 1 .448 1 1-.449 1-1 1z" fill="url(#SVGID_1_)"/></svg>